<?xml version="1.0" encoding="UTF-8"?>
<svg width="60px" height="60px" viewBox="0 0 60 60" version="1.1" xmlns="http://www.w3.org/2000/svg" xmlns:xlink="http://www.w3.org/1999/xlink">
    <!-- Generator: Sketch 49.1 (51147) - http://www.bohemiancoding.com/sketch -->
    <title>Group 5</title>
    <desc>Created with Sketch.</desc>
    <defs>
        <polygon id="path-1" points="0.00469120553 0.0702782609 26.9040028 0.0702782609 26.9040028 16.8263217 0.00469120553 16.8263217"></polygon>
    </defs>
    <g id="Page-1" stroke="none" stroke-width="1" fill="none" fill-rule="evenodd">
        <g id="About" transform="translate(-765.000000, -2623.000000)">
            <g id="Group-2" transform="translate(614.000000, 2623.000000)">
                <g id="Group-5" transform="translate(151.000000, 0.000000)">
                    <ellipse id="Oval-Copy-2" fill="#202020" cx="30.0284091" cy="30" rx="29.9715909" ry="30"></ellipse>
                    <g id="001-behance-logo" transform="translate(16.840909, 21.600000)">
                        <mask id="mask-2" fill="white">
                            <use xlink:href="#path-1"></use>
                        </mask>
                        <g id="Clip-2"></g>
                        <path d="M24.2962226,2.44158261 L17.5550384,2.44158261 L17.5550384,0.765469565 L24.2968481,0.765469565 L24.2968481,2.44158261 L24.2962226,2.44158261 Z M13.0672748,9.31453043 C13.5021496,9.98890435 13.7196651,10.8075913 13.7196651,11.768713 C13.7196651,12.7628609 13.474706,13.6546435 12.9759527,14.4424174 C12.6589054,14.9636348 12.2649223,15.4041652 11.7918142,15.7585304 C11.2588933,16.1684609 10.6279261,16.4497304 9.90250939,16.5998348 C9.17505978,16.7502522 8.38732819,16.8263217 7.53923641,16.8263217 L0,16.8263217 L0,0.0702782609 L8.0843545,0.0702782609 C10.1224487,0.10353913 11.5670273,0.694486957 12.420123,1.85493913 C12.9319335,2.56695652 13.185806,3.42109565 13.185806,4.41375652 C13.185806,5.4381913 12.9288843,6.25773913 12.412148,6.88077391 C12.1244207,7.22989565 11.699632,7.54755652 11.1373129,7.8339913 C11.9891576,8.14609565 12.6353712,8.63765217 13.0672748,9.31453043 Z M3.86078397,6.67627826 L7.40303508,6.67627826 C8.13079743,6.67627826 8.71938735,6.53775652 9.17255781,6.26110435 C9.6254937,5.98476522 9.85153162,5.4932087 9.85153162,4.78792174 C9.85153162,4.00836522 9.55223271,3.49113913 8.95238389,3.24195652 C8.43682041,3.06892174 7.77684597,2.97993913 6.97636994,2.97993913 L3.86078397,2.97993913 L3.86078397,6.67627826 Z M10.1926604,11.5296261 C10.1926604,10.6589739 9.83714526,10.0573826 9.12767861,9.73455652 C8.73127174,9.55111304 8.17145455,9.45727826 7.4537001,9.45054783 L3.86078397,9.45054783 L3.86078397,13.9160348 L7.39810931,13.9160348 C8.12501161,13.9160348 8.68756534,13.8206348 9.09351099,13.6219304 C9.82557362,13.2569217 10.1926604,12.5617304 10.1926604,11.5296261 Z M26.7972606,8.80364348 C26.8788094,9.35178261 26.915479,10.1472261 26.9008581,11.186687 L18.1702118,11.186687 C18.2184531,12.393 18.6344066,13.2364174 19.423311,13.7191304 C19.8991556,14.0220783 20.4760957,14.1697565 21.1516293,14.1697565 C21.8639107,14.1697565 22.4444474,13.9896783 22.8912847,13.6191913 C23.135071,13.4226 23.3497719,13.1453217 23.5354654,12.7955739 L26.7352585,12.7955739 C26.6515987,13.5079043 26.266138,14.2305652 25.5737942,14.964887 C24.5011501,16.1320696 22.9966805,16.7172261 21.0642947,16.7172261 C19.4678775,16.7172261 18.0611413,16.2234783 16.8400987,15.2400522 C15.6229654,14.2531826 15.0118577,12.652513 15.0118577,10.4321739 C15.0118577,8.35004348 15.5607288,6.75602609 16.6617547,5.6469913 C17.7670027,4.53537391 19.1932856,3.98238261 20.9516276,3.98238261 C21.9937007,3.98238261 22.9331146,4.16887826 23.7711985,4.54366957 C24.6068586,4.91877391 25.2970913,5.5094087 25.8410366,6.32105217 C26.3330658,7.0358087 26.6498004,7.86208696 26.7972606,8.80364348 Z M23.647507,9.11645217 C23.588867,8.28211304 23.3106785,7.65086087 22.8097359,7.21948696 C22.3128591,6.78693913 21.6922126,6.5696087 20.9516276,6.5696087 C20.1456003,6.5696087 19.5231555,6.80188696 19.0809312,7.2579913 C18.6356576,7.71354783 18.3586419,8.3325913 18.2452711,9.11645217 L23.647507,9.11645217 Z" id="Fill-1" fill="#FFFFFF" mask="url(#mask-2)"></path>
                    </g>
                </g>
            </g>
        </g>
    </g>
</svg>
