<?xml version="1.0" encoding="UTF-8"?>
<svg width="61px" height="60px" viewBox="0 0 61 60" version="1.1" xmlns="http://www.w3.org/2000/svg" xmlns:xlink="http://www.w3.org/1999/xlink">
    <!-- Generator: Sketch 49.1 (51147) - http://www.bohemiancoding.com/sketch -->
    <title>Group 4</title>
    <desc>Created with Sketch.</desc>
    <defs>
        <polygon id="path-1" points="0.00358634421 0.0104102564 20.9695938 0.0104102564 20.9695938 21.0001197 0.00358634421 21.0001197"></polygon>
    </defs>
    <g id="Page-1" stroke="none" stroke-width="1" fill="none" fill-rule="evenodd">
        <g id="About" transform="translate(-689.000000, -2623.000000)">
            <g id="Group-2" transform="translate(614.000000, 2623.000000)">
                <g id="Group-4" transform="translate(75.000000, 0.000000)">
                    <ellipse id="Oval-Copy" fill="#202020" cx="30.5" cy="30" rx="29.9715909" ry="30"></ellipse>
                    <g id="002-dribbble-logo" transform="translate(20.309659, 20.400000)">
                        <mask id="mask-2" fill="white">
                            <use xlink:href="#path-1"></use>
                        </mask>
                        <g id="Clip-2"></g>
                        <path d="M19.5638065,5.23725641 C18.6263362,3.62935043 17.3545587,2.35636752 15.7481754,1.41800855 C14.1415529,0.479410256 12.3875915,0.0104102564 10.4851555,0.0104102564 C8.58295851,0.0104102564 6.82851892,0.479410256 5.22213558,1.41800855 C3.61575223,2.35612821 2.3439748,3.62935043 1.40626534,5.23725641 C0.468615644,6.84516239 0,8.60120513 0,10.505265 C0,12.409265 0.468854733,14.1651282 1.40626534,15.7732137 C2.34373571,17.3809402 3.61551314,18.6539231 5.22189649,19.5924615 C6.82851892,20.5308205 8.58271942,21.0001197 10.4849164,21.0001197 C12.3871134,21.0001197 14.1415529,20.5308205 15.7481754,19.5924615 C17.3543196,18.6544017 18.6260971,17.3809402 19.5638065,15.7732137 C20.500978,14.1651282 20.9695937,12.4090256 20.9695937,10.505265 C20.9698328,8.60120513 20.500978,6.84492308 19.5638065,5.23725641 Z M10.4849164,1.54095726 C12.7420419,1.54095726 14.7126783,2.28786325 16.3962876,3.78197436 L16.2256373,4.02081197 C16.157437,4.11659829 15.9867868,4.30099145 15.713866,4.57447009 C15.4408855,4.84764957 15.1427407,5.10730769 14.8196111,5.35338462 C14.4964217,5.59928205 14.057513,5.87946154 13.502048,6.19380342 C12.9468221,6.5081453 12.3553742,6.78371795 11.7272858,7.02064103 C10.6806112,5.08905983 9.56125344,3.34911111 8.36885376,1.80055556 C9.08797555,1.62741026 9.79334968,1.54095726 10.4849164,1.54095726 Z M3.46799485,4.94325641 C4.34168807,3.84108547 5.40635413,2.99366667 6.66253096,2.40165812 C7.79097416,3.90486325 8.90142588,5.62662393 9.99364701,7.56705983 C7.22660313,8.29601709 4.46918261,8.66037607 1.72030955,8.66013687 C2.01170001,7.28478632 2.59424186,6.04542735 3.46799485,4.94325641 Z M2.12987005,13.7371709 C1.72921563,12.712359 1.52909763,11.6349573 1.52909763,10.505265 C1.52909763,10.3776496 1.53375987,10.2818034 1.54266596,10.218265 C4.83761971,10.218265 7.90047721,9.79479487 10.7309994,8.94737607 C11.0221508,9.51198291 11.2633922,10.0177179 11.4546041,10.4643419 C11.4177245,10.4823504 11.3588487,10.5029316 11.2769007,10.5256068 C11.1947137,10.5484615 11.1358976,10.5641368 11.0990181,10.5734701 L10.5939413,10.7511026 C10.2481579,10.8787179 9.79520263,11.097453 9.23555361,11.4068889 C8.67584483,11.7170427 8.08212554,12.0858291 7.45403713,12.5139658 C6.82594871,12.9423419 6.17759745,13.5095812 5.50862471,14.2158034 C4.83971174,14.9216068 4.27767183,15.68 3.82262452,16.4907436 C3.09441733,15.68 2.53028539,14.7617436 2.12987005,13.7371709 Z M10.4849164,19.4695726 C8.35528543,19.4695726 6.45308846,18.7864444 4.77826571,17.4199487 L4.98304596,17.5702393 C5.30151333,16.8686239 5.77036806,16.1944103 6.38937107,15.5477179 C7.00831431,14.9010256 7.60442449,14.3791966 8.17782116,13.9828291 C8.75103851,13.5868803 9.37446468,13.2134274 10.0480399,12.8621709 C10.7216749,12.5116325 11.180966,12.2881709 11.427049,12.1928632 C11.6728929,12.0972564 11.868528,12.0219915 12.014014,11.9670684 L12.04133,11.953547 L12.068646,11.953547 C12.9603307,14.2948376 13.5977436,16.5633761 13.9799881,18.7588632 C12.8513058,19.2328291 11.6867003,19.4695726 10.4849164,19.4695726 Z M18.0213797,15.3495043 C17.3477447,16.3928034 16.5058504,17.2561368 15.4957565,17.939265 C15.1224181,15.843812 14.5401153,13.7072564 13.748131,11.5300769 C15.5592946,11.2475043 17.4206072,11.3797863 19.3319494,11.9262051 C19.1315923,13.1650855 18.6947756,14.3065043 18.0213797,15.3495043 Z M19.3043943,10.3823162 C19.2133012,10.3640684 19.099375,10.343547 18.9630341,10.3208718 C18.8264542,10.2981966 18.6602271,10.2708547 18.4645323,10.2388462 C18.2691363,10.2070171 18.0503095,10.1773419 17.8093669,10.15 C17.5681853,10.1226581 17.3111042,10.0976496 17.0377052,10.0749744 C16.7647844,10.0520598 16.4735733,10.0341111 16.1642511,10.0202906 C15.8543909,10.0067692 15.5405858,9.9997094 15.2218794,9.9997094 C14.9036511,9.9997094 14.5688061,10.0091026 14.2185996,10.0270513 C13.8683931,10.0450598 13.529364,10.0773077 13.2017514,10.1228974 C13.1744355,10.0770684 13.1403652,10.0021026 13.0994809,9.89716239 C13.0584172,9.79246154 13.0287701,9.71276923 13.0110177,9.65808547 C12.8377375,9.27547863 12.6376793,8.84267521 12.4097671,8.35979487 C13.0378555,8.10462393 13.6365359,7.81086325 14.2055094,7.4782735 C14.7743036,7.14568376 15.2288727,6.84982906 15.570472,6.59017094 C15.9118322,6.3302735 16.2349618,6.05476068 16.5396816,5.76333333 C16.8448197,5.47190598 17.0426066,5.26926496 17.133879,5.15523077 C17.2249722,5.04119658 17.3113433,4.92967521 17.3932912,4.82054701 L17.4068596,4.80678632 C18.7356001,6.42821368 19.4141364,8.29577778 19.4409742,10.4094188 L19.3043943,10.3823162 Z" id="Fill-1" fill="#FFFFFF" mask="url(#mask-2)"></path>
                    </g>
                </g>
            </g>
        </g>
    </g>
</svg>
