<?xml version="1.0" encoding="UTF-8"?>
<svg width="60px" height="60px" viewBox="0 0 60 60" version="1.1" xmlns="http://www.w3.org/2000/svg" xmlns:xlink="http://www.w3.org/1999/xlink">
    <!-- Generator: Sketch 49.1 (51147) - http://www.bohemiancoding.com/sketch -->
    <title>Group 3</title>
    <desc>Created with Sketch.</desc>
    <defs>
        <polygon id="path-1" points="0.00364871542 0.0335391304 20.925018 0.0335391304 20.925018 20.0477565 0.00364871542 20.0477565"></polygon>
    </defs>
    <g id="Page-1" stroke="none" stroke-width="1" fill="none" fill-rule="evenodd">
        <g id="About" transform="translate(-614.000000, -2623.000000)">
            <g id="Group-2" transform="translate(614.000000, 2623.000000)">
                <g id="Group-3">
                    <ellipse id="Oval" fill="#202020" cx="29.9715909" cy="30" rx="29.9715909" ry="30"></ellipse>
                    <g id="003-linkedin-logo" transform="translate(19.781250, 19.200000)">
                        <mask id="mask-2" fill="white">
                            <use xlink:href="#path-1"></use>
                        </mask>
                        <g id="Clip-2"></g>
                        <path d="M20.925018,12.3042348 L20.925018,20.0477565 L16.4401387,20.0477565 L16.4401387,12.8227826 C16.4401387,11.0078957 15.7913971,9.76932174 14.167962,9.76932174 C12.9287366,9.76932174 12.191392,10.6039043 11.8668996,11.4114 C11.7485596,11.7000435 11.7181536,12.1019043 11.7181536,12.5060783 L11.7181536,20.0477565 L7.23163233,20.0477565 C7.23163233,20.0477565 7.29195776,7.81126957 7.23163233,6.54347826 L11.7177279,6.54347826 L11.7177279,8.45752174 C11.7084237,8.47182609 11.6968086,8.48728696 11.6882341,8.50128696 L11.7177279,8.50128696 L11.7177279,8.45752174 C12.3136848,7.53881739 13.3781367,6.22604348 15.7605046,6.22604348 C18.7122546,6.22604348 20.925018,8.15627826 20.925018,12.3042348 Z M2.53865456,0.0335391304 C1.00388323,0.0335391304 0,1.04123478 0,2.36630435 C0,3.66264348 0.974875947,4.70101739 2.47905888,4.70101739 L2.50922159,4.70101739 C4.07366914,4.70101739 5.04665991,3.66288696 5.04665991,2.36630435 C5.01722694,1.04123478 4.07366914,0.0335391304 2.53865456,0.0335391304 Z M0.266538661,20.0477565 L4.75117478,20.0477565 L4.75117478,6.54347826 L0.266538661,6.54347826 L0.266538661,20.0477565 Z" id="Fill-1" fill="#FFFFFF" mask="url(#mask-2)"></path>
                    </g>
                </g>
            </g>
        </g>
    </g>
</svg>
