<?xml version="1.0" encoding="UTF-8"?>
<svg width="189px" height="118px" viewBox="0 0 189 118" version="1.1" xmlns="http://www.w3.org/2000/svg" xmlns:xlink="http://www.w3.org/1999/xlink">
    <!-- Generator: Sketch 49.1 (51147) - http://www.bohemiancoding.com/sketch -->
    <title>paper-plane</title>
    <desc>Created with Sketch.</desc>
    <defs>
        <polygon id="path-1" points="0.025078125 0.196787865 213.99912 0.196787865 213.99912 129.857338 0.025078125 129.857338"></polygon>
    </defs>
    <g id="Page-1" stroke="none" stroke-width="1" fill="none" fill-rule="evenodd">
        <g id="About" transform="translate(-1196.000000, -297.000000)">
            <g id="paper-plane" transform="translate(1313.000000, 341.000000) scale(-1, 1) rotate(11.000000) translate(-1313.000000, -341.000000) translate(1206.000000, 276.000000)">
                <g id="Group-4">
                    <mask id="mask-2" fill="white">
                        <use xlink:href="#path-1"></use>
                    </mask>
                    <g id="Clip-2"></g>
                    <path d="M155.564625,120.301494 L112.18323,72.5108766 L138.146613,55.4120779 C139.926742,54.2399675 140.187137,51.7108766 138.684539,50.1935065 L138.636055,50.1445455 C137.517152,49.0150649 135.768371,48.831039 134.44341,49.703474 L106.487988,68.114513 L47.2701758,49.427013 L191.613594,12.052013 L150.989121,38.8071104 C149.191437,39.9906169 148.927699,42.5454545 150.445762,44.0780195 C151.575531,45.2193182 153.342285,45.4046104 154.681039,44.5237338 L202.890391,12.7741883 L155.564625,120.301494 Z M100.313336,107.131818 L93.1694141,71.061039 L105.122902,74.8335714 L121.495992,92.8706494 L100.313336,107.131818 Z M213.990387,3.36902597 C213.979102,3.20272727 213.954859,3.03642857 213.918914,2.87097403 C213.916824,2.86211039 213.91557,2.8524026 213.91348,2.84311688 C213.877953,2.68821429 213.829051,2.53415584 213.770953,2.38178571 C213.76134,2.35646104 213.752145,2.33113636 213.741695,2.30538961 C213.732082,2.28133117 213.724559,2.25727273 213.713691,2.23321429 C213.660609,2.11165584 213.599586,1.99600649 213.534383,1.88373377 C213.521008,1.86051948 213.507215,1.83772727 213.492586,1.81493506 C213.406902,1.67480519 213.313695,1.54185065 213.211293,1.41775974 C213.202098,1.40762987 213.192066,1.39707792 213.183289,1.38652597 C212.828434,0.969512987 212.382879,0.648311688 211.888004,0.445292208 C211.88257,0.44275974 211.877137,0.440227273 211.871703,0.438116883 C211.712457,0.373961039 211.548613,0.323311688 211.381008,0.284058442 C211.37223,0.281948052 211.363035,0.279415584 211.35384,0.277305195 C211.189578,0.240584416 211.022391,0.216525974 210.853113,0.204707792 C210.842246,0.203863636 210.831379,0.203019481 210.820094,0.202597403 C210.653742,0.193311688 210.486137,0.194577922 210.317695,0.210616883 C210.30432,0.211461039 210.291363,0.213571429 210.277988,0.214837662 C210.112891,0.232142857 209.946957,0.259155844 209.782277,0.302207792 L209.77768,0.303051948 C209.776426,0.303896104 209.774336,0.304318182 209.773082,0.304318182 L34.0769922,45.7975649 C32.6136836,46.1761688 31.5775391,47.4892532 31.53825,49.0137987 C31.4989609,50.5383442 32.4665586,51.9041883 33.9081328,52.3591883 L85.8185977,68.7408766 L94.6761914,113.465519 C94.8972969,114.582338 95.6550742,115.513442 96.6962344,115.949026 C97.1121133,116.122922 97.5513984,116.208604 97.9894297,116.208604 C98.6473125,116.208604 99.3010156,116.01487 99.8640195,115.635422 L126.117891,97.9609091 L154.067461,128.751071 C154.712805,129.461851 155.619379,129.857338 156.557719,129.857338 C156.738699,129.857338 156.920934,129.842565 157.102332,129.812597 C158.227086,129.627305 159.18298,128.881916 159.645672,127.830942 L213.709094,4.99275974 C213.713691,4.98136364 213.716199,4.96912338 213.721215,4.95730519 C213.784746,4.80873377 213.837828,4.65551948 213.880043,4.49935065 C213.88673,4.4736039 213.893,4.44743506 213.89927,4.42168831 C213.937305,4.26636364 213.965309,4.10935065 213.981609,3.94980519 C213.983699,3.92785714 213.984535,3.90590909 213.986207,3.88396104 C214,3.72019481 214.003344,3.55474026 213.993312,3.38970779 C213.992477,3.38295455 213.990805,3.3762013 213.990387,3.36902597 Z" id="Fill-1" fill="#0A0B09" mask="url(#mask-2)"></path>
                </g>
            </g>
        </g>
    </g>
</svg>
